HIERARCHY
ROOT Root
{
  OFFSET 0.0 0.0 0.0
  CHANNELS 6 Xposition Yposition Zposition Zrotation Yrotation Xrotation
  JOINT Hips
  {
    OFFSET 0.0 100.0 0.0
    CHANNELS 6 Xposition Yposition Zposition Zrotation Yrotation Xrotation
    JOINT Spine1
    {
      OFFSET -0.013727 5.003763 -0.053727
      CHANNELS 3 Zrotation Yrotation Xrotation
      JOINT Spine2
      {
        OFFSET -0.0 7.125301 -0.029825
        CHANNELS 3 Zrotation Yrotation Xrotation
        JOINT Chest
        {
          OFFSET -1e-06 7.550063 -0.815971
          CHANNELS 3 Zrotation Yrotation Xrotation
          JOINT Neck1
          {
            OFFSET -0.181677 26.311295 -0.553348
            CHANNELS 3 Zrotation Yrotation Xrotation
            JOINT Neck2
            {
              OFFSET -3e-06 7.709397 2.302585
              CHANNELS 3 Zrotation Yrotation Xrotation
              JOINT Head
              {
                OFFSET -5e-06 6.128916 1.953709
                CHANNELS 3 Zrotation Yrotation Xrotation
                JOINT HeadEnd
                {
                  OFFSET 0.003598 16.065403 -1.835379
                  CHANNELS 3 Zrotation Yrotation Xrotation
                }
                JOINT Jaw
                {
                  OFFSET 0.002637 0.475592 3.094941
                  CHANNELS 3 Zrotation Yrotation Xrotation
                }
                JOINT LeftEye
                {
                  OFFSET 3.206381 5.380205 7.586883
                  CHANNELS 3 Zrotation Yrotation Xrotation
                }
                JOINT RightEye
                {
                  OFFSET -3.22244 5.361869 7.558234
                  CHANNELS 3 Zrotation Yrotation Xrotation
                }
              }
            }
          }
          JOINT LeftShoulder
          {
            OFFSET 1.621652 23.237164 5.113413
            CHANNELS 3 Zrotation Yrotation Xrotation
            JOINT LeftArm
            {
              OFFSET 14.919846 2e-06 -5.502326
              CHANNELS 3 Zrotation Yrotation Xrotation
              JOINT LeftForeArm
              {
                OFFSET 28.739307 0.0 -0.002588
                CHANNELS 3 Zrotation Yrotation Xrotation
                JOINT LeftHand
                {
                  OFFSET 27.093981 -1e-06 0.002609
                  CHANNELS 3 Zrotation Yrotation Xrotation
                  JOINT LeftHandThumb1
                  {
                    OFFSET 2.276482 -1.392045 3.191413
                    CHANNELS 3 Zrotation Yrotation Xrotation
                    JOINT LeftHandThumb2
                    {
                      OFFSET 4.012836 -1.828127 1.641654
                      CHANNELS 3 Zrotation Yrotation Xrotation
                      JOINT LeftHandThumb3
                      {
                        OFFSET 2.798515 0.0 -3e-06
                        CHANNELS 3 Zrotation Yrotation Xrotation
                        JOINT LeftHandThumbEnd
                        {
                          OFFSET 3.180793 -4e-06 4e-06
                          CHANNELS 3 Zrotation Yrotation Xrotation
                        }
                      }
                    }
                  }
                  JOINT LeftHandIndex1
                  {
                    OFFSET 3.247555 -0.531998 2.296169
                    CHANNELS 3 Zrotation Yrotation Xrotation
                    JOINT LeftHandIndex2
                    {
                      OFFSET 6.364578 0.01206 0.1786
                      CHANNELS 3 Zrotation Yrotation Xrotation
                      JOINT LeftHandIndex3
                      {
                        OFFSET 3.662364 0.0 0.0
                        CHANNELS 3 Zrotation Yrotation Xrotation
                        JOINT LeftHandIndex4
                        {
                          OFFSET 2.329242 4e-06 4e-06
                          CHANNELS 3 Zrotation Yrotation Xrotation
                          JOINT LeftHandIndexEnd
                          {
                            OFFSET 2.759615 -0.180537 -0.113024
                            CHANNELS 3 Zrotation Yrotation Xrotation
                          }
                        }
                      }
                    }
                  }
                  JOINT LeftHandMiddle1
                  {
                    OFFSET 3.163495 0.240981 1.000332
                    CHANNELS 3 Zrotation Yrotation Xrotation
                    JOINT LeftHandMiddle2
                    {
                      OFFSET 6.19078 -0.259278 -1.002548
                      CHANNELS 3 Zrotation Yrotation Xrotation
                      JOINT LeftHandMiddle3
                      {
                        OFFSET 4.35652 -4e-06 -1e-06
                        CHANNELS 3 Zrotation Yrotation Xrotation
                        JOINT LeftHandMiddle4
                        {
                          OFFSET 2.996877 -8e-06 0.0
                          CHANNELS 3 Zrotation Yrotation Xrotation
                          JOINT LeftHandMiddleEnd
                          {
                            OFFSET 2.304287 -0.294569 -0.031741
                            CHANNELS 3 Zrotation Yrotation Xrotation
                          }
                        }
                      }
                    }
                  }
                  JOINT LeftHandRing1
                  {
                    OFFSET 2.882643 -0.053652 -0.322543
                    CHANNELS 3 Zrotation Yrotation Xrotation
                    JOINT LeftHandRing2
                    {
                      OFFSET 5.854541 -0.486202 -1.373841
                      CHANNELS 3 Zrotation Yrotation Xrotation
                      JOINT LeftHandRing3
                      {
                        OFFSET 4.350578 0.0 3e-06
                        CHANNELS 3 Zrotation Yrotation Xrotation
                        JOINT LeftHandRing4
                        {
                          OFFSET 2.651321 7e-06 2e-06
                          CHANNELS 3 Zrotation Yrotation Xrotation
                          JOINT LeftHandRingEnd
                          {
                            OFFSET 1.936105 0.077687 -7.1e-05
                            CHANNELS 3 Zrotation Yrotation Xrotation
                          }
                        }
                      }
                    }
                  }
                  JOINT LeftHandPinky1
                  {
                    OFFSET 2.8655 -0.310005 -1.600378
                    CHANNELS 3 Zrotation Yrotation Xrotation
                    JOINT LeftHandPinky2
                    {
                      OFFSET 5.087849 -1.331141 -1.77123
                      CHANNELS 3 Zrotation Yrotation Xrotation
                      JOINT LeftHandPinky3
                      {
                        OFFSET 3.070974 4e-06 0.0
                        CHANNELS 3 Zrotation Yrotation Xrotation
                        JOINT LeftHandPinky4
                        {
                          OFFSET 1.549672 0.0 1e-06
                          CHANNELS 3 Zrotation Yrotation Xrotation
                          JOINT LeftHandPinkyEnd
                          {
                            OFFSET 1.944893 -0.157802 0.057219
                            CHANNELS 3 Zrotation Yrotation Xrotation
                          }
                        }
                      }
                    }
                  }
                }
              }
            }
          }
          JOINT RightShoulder
          {
            OFFSET -1.380118 23.180309 5.214158
            CHANNELS 3 Zrotation Yrotation Xrotation
            JOINT RightArm
            {
              OFFSET -15.037196 1.2e-05 -5.545604
              CHANNELS 3 Zrotation Yrotation Xrotation
              JOINT RightForeArm
              {
                OFFSET -28.736639 2e-06 -0.002597
                CHANNELS 3 Zrotation Yrotation Xrotation
                JOINT RightHand
                {
                  OFFSET -27.133619 -0.0 0.002613
                  CHANNELS 3 Zrotation Yrotation Xrotation
                  JOINT RightHandThumb1
                  {
                    OFFSET -2.274032 -1.383988 3.163127
                    CHANNELS 3 Zrotation Yrotation Xrotation
                    JOINT RightHandThumb2
                    {
                      OFFSET -4.011429 -1.827466 1.640914
                      CHANNELS 3 Zrotation Yrotation Xrotation
                      JOINT RightHandThumb3
                      {
                        OFFSET -2.794935 -4e-06 -3e-06
                        CHANNELS 3 Zrotation Yrotation Xrotation
                        JOINT RightHandThumbEnd
                        {
                          OFFSET -3.183852 4e-06 1e-06
                          CHANNELS 3 Zrotation Yrotation Xrotation
                        }
                      }
                    }
                  }
                  JOINT RightHandIndex1
                  {
                    OFFSET -3.253266 -0.520057 2.282866
                    CHANNELS 3 Zrotation Yrotation Xrotation
                    JOINT RightHandIndex2
                    {
                      OFFSET -6.341917 0.012471 0.178266
                      CHANNELS 3 Zrotation Yrotation Xrotation
                      JOINT RightHandIndex3
                      {
                        OFFSET -3.654871 -8e-06 -0.0
                        CHANNELS 3 Zrotation Yrotation Xrotation
                        JOINT RightHandIndex4
                        {
                          OFFSET -2.327586 0.0 1e-06
                          CHANNELS 3 Zrotation Yrotation Xrotation
                          JOINT RightHandIndexEnd
                          {
                            OFFSET -2.76179 -0.180656 -0.113078
                            CHANNELS 3 Zrotation Yrotation Xrotation
                          }
                        }
                      }
                    }
                  }
                  JOINT RightHandMiddle1
                  {
                    OFFSET -3.168106 0.246593 1.00103
                    CHANNELS 3 Zrotation Yrotation Xrotation
                    JOINT RightHandMiddle2
                    {
                      OFFSET -6.180828 -0.258836 -1.000895
                      CHANNELS 3 Zrotation Yrotation Xrotation
                      JOINT RightHandMiddle3
                      {
                        OFFSET -4.348901 0.0 -0.0
                        CHANNELS 3 Zrotation Yrotation Xrotation
                        JOINT RightHandMiddle4
                        {
                          OFFSET -3.00024 -4e-06 -2e-06
                          CHANNELS 3 Zrotation Yrotation Xrotation
                          JOINT RightHandMiddleEnd
                          {
                            OFFSET -2.30252 -0.29437 -0.031706
                            CHANNELS 3 Zrotation Yrotation Xrotation
                          }
                        }
                      }
                    }
                  }
                  JOINT RightHandRing1
                  {
                    OFFSET -2.88569 -0.067952 -0.308858
                    CHANNELS 3 Zrotation Yrotation Xrotation
                    JOINT RightHandRing2
                    {
                      OFFSET -5.854198 -0.48613 -1.373731
                      CHANNELS 3 Zrotation Yrotation Xrotation
                      JOINT RightHandRing3
                      {
                        OFFSET -4.33881 -4e-06 -0.0
                        CHANNELS 3 Zrotation Yrotation Xrotation
                        JOINT RightHandRing4
                        {
                          OFFSET -2.654903 -4e-06 4e-06
                          CHANNELS 3 Zrotation Yrotation Xrotation
                          JOINT RightHandRingEnd
                          {
                            OFFSET -1.933568 0.077527 -5.2e-05
                            CHANNELS 3 Zrotation Yrotation Xrotation
                          }
                        }
                      }
                    }
                  }
                  JOINT RightHandPinky1
                  {
                    OFFSET -2.866425 -0.342796 -1.584145
                    CHANNELS 3 Zrotation Yrotation Xrotation
                    JOINT RightHandPinky2
                    {
                      OFFSET -5.091371 -1.332055 -1.772385
                      CHANNELS 3 Zrotation Yrotation Xrotation
                      JOINT RightHandPinky3
                      {
                        OFFSET -3.062664 -4e-06 1e-06
                        CHANNELS 3 Zrotation Yrotation Xrotation
                        JOINT RightHandPinky4
                        {
                          OFFSET -1.546529 4e-06 -2e-06
                          CHANNELS 3 Zrotation Yrotation Xrotation
                          JOINT RightHandPinkyEnd
                          {
                            OFFSET -1.945119 -0.157718 0.057211
                            CHANNELS 3 Zrotation Yrotation Xrotation
                          }
                        }
                      }
                    }
                  }
                }
              }
            }
          }
        }
      }
    }
    JOINT LeftLeg
    {
      OFFSET 10.043214 -8.434526 2.595655
      CHANNELS 3 Zrotation Yrotation Xrotation
      JOINT LeftShin
      {
        OFFSET -1e-06 -43.221752 -0.802913
        CHANNELS 3 Zrotation Yrotation Xrotation
        JOINT LeftFoot
        {
          OFFSET 1e-06 -42.155094 -3.481523
          CHANNELS 3 Zrotation Yrotation Xrotation
          JOINT LeftToeBase
          {
            OFFSET 0.0 -5.059472 13.231529
            CHANNELS 3 Zrotation Yrotation Xrotation
            JOINT LeftToeEnd
            {
              OFFSET -0.009607 -1.647619 6.513017
              CHANNELS 3 Zrotation Yrotation Xrotation
            }
          }
        }
      }
    }
    JOINT RightLeg
    {
      OFFSET -10.047278 -8.29526 2.620317
      CHANNELS 3 Zrotation Yrotation Xrotation
      JOINT RightShin
      {
        OFFSET 1e-06 -43.362206 -0.805556
        CHANNELS 3 Zrotation Yrotation Xrotation
        JOINT RightFoot
        {
          OFFSET 2e-06 -42.117393 -3.478398
          CHANNELS 3 Zrotation Yrotation Xrotation
          JOINT RightToeBase
          {
            OFFSET -0.0 -5.079609 13.284196
            CHANNELS 3 Zrotation Yrotation Xrotation
            JOINT RightToeEnd
            {
              OFFSET 0.009532 -1.634378 6.460591
              CHANNELS 3 Zrotation Yrotation Xrotation
            }
          }
        }
      }
    }
  }
}
MOTION
Frames: 4
Frame Time: 0.03333333333333333
-1.378304 0.0 1.025739 0.0 -0.061797 0.0 0.0 98.601028 0.0 1.153173 0.037075 -1.84218 -0.77759 -0.157082 0.765859 -0.586217 -0.035919 -5.022476 -1.540389 -2.196609 13.090358 1.313825 2.414179 10.377563 -0.825193 -0.714401 -3.619022 1.051167 -1.557782 -18.011114 7.7e-05 -2.3e-05 6e-06 0.013099 -0.000919 0.086307 0.674188 -3.744851 -10.43696 -0.649441 3.750646 -10.44523 -18.851671 -10.502108 18.527351 -56.174419 -23.663067 33.376286 0.483088 -23.150908 0.02272 -7.488354 -1.617483 3.484481 -5.882108 9.861284 0.702591 -10.936873 -0.360575 7.156206 0.0 8.774824 1e-06 -16.161858 18.215275 6.210805 -1.844033 2.498503 -2.507278 -10.163603 4.678945 4.621107 -20.97603 -2e-06 2e-06 -21.226292 2.451698 -3.594 2e-06 -6e-06 -0.0 -1.362682 2.240799 -0.746322 -21.334925 0.584909 3.008323 -13.82122 -2e-06 2e-06 -23.88718 -0.24908 -0.839484 -60.301315 2.589127 -1.434722 -0.294024 1.679688 0.833256 -14.218213 0.093217 1.30058 -34.212063 -0.287563 0.96717 -20.033218 0.964537 1.212845 0.0 3e-06 1e-06 -3.44039 0.788234 0.501654 -15.928191 -3.167308 2.999707 -6.338829 -1e-06 1e-06 -18.123455 3.648183 -4.905671 -4e-06 -0.0 -2e-06 15.194346 11.766177 20.28857 57.931541 16.387474 29.470293 0.719372 33.78727 0.292294 2.233463 3.934958 -0.43799 2.24354 -5.255033 -3.180155 14.282883 -0.826593 6.9525 -3e-06 -12.6906 1e-06 16.149885 -18.074322 2.375627 1.665665 -1.95592 -2.878296 4.727797 -4.170585 4.993921 11.020521 4e-06 -1e-06 12.109046 -3.735713 -2.866783 1e-06 1e-06 0.0 1.291984 -1.928548 -1.498088 14.800118 0.567469 3.865607 14.242562 -1.341737 -6.660654 19.631954 0.143927 -0.648242 49.979473 -0.733119 -6.683274 0.353028 -1.51115 -0.031941 20.222784 3.68431 2.31663 18.787266 7e-06 2e-06 10.751624 -0.479867 1.397906 1e-06 0.0 -1e-06 3.273806 0.305948 -0.58011 21.486801 11.830371 2.266134 8.162922 1e-06 0.0 18.399071 -3.798983 -4.940572 3e-06 -0.0 -2e-06 6.57287 8.252398 -8.089572 -0.014678 -0.038799 17.337246 -10.331271 5.55328 -6.558394 1.659171 -2.081331 -0.923455 0.0 -0.0 2e-06 -8.718772 -22.306078 -7.97304 0.034811 -0.004602 21.921888 8.313755 -3.533342 -8.933168 -1.408216 0.958012 -0.93332 0.0 0.0 -1e-06 
-1.36989 0.0 1.115348 0.0 -0.010654 0.0 0.0 98.638824 0.0 1.188923 0.039452 -1.900453 -0.810049 -0.143292 0.824832 -0.587743 0.029292 -4.995064 -1.610673 -2.227016 13.10878 1.180742 2.406883 10.467144 -0.778332 -0.811628 -3.603047 1.113766 -1.609312 -17.970705 7.7e-05 -2.3e-05 6e-06 0.011634 0.030766 0.078727 0.663792 -3.716279 -10.430202 -0.642072 3.785237 -10.429248 -18.805294 -10.53974 18.607668 -56.199879 -23.594749 33.146114 0.618448 -23.124954 -0.057336 -7.620809 -1.510486 3.434829 -5.88211 9.86129 0.70259 -10.936878 -0.360575 7.156207 1e-06 8.774828 -1e-06 -16.11982 18.155468 6.194652 -1.844033 2.498505 -2.50728 -10.163606 4.678946 4.621108 -20.976034 -3e-06 -0.0 -21.226301 2.451695 -3.594003 2e-06 -7e-06 -0.0 -1.362683 2.240799 -0.746323 -21.334927 0.584909 3.008321 -13.821221 -4e-06 0.0 -23.887188 -0.249082 -0.839485 -60.082832 2.548417 -1.395935 -0.294024 1.679688 0.833256 -14.218218 0.093216 1.300581 -34.212074 -0.287566 0.967167 -20.033228 0.964534 1.212842 0.0 1e-06 0.0 -3.440391 0.788234 0.501655 -15.928198 -3.16731 2.999705 -6.33883 -2e-06 1e-06 -18.123457 3.648182 -4.905674 -3e-06 -0.0 -1e-06 15.006764 11.724682 20.439316 57.50626 16.284727 29.577021 1.191308 34.582924 0.489393 2.670875 3.170471 0.083064 2.24354 -5.255034 -3.180157 14.282884 -0.826595 6.952502 -1e-06 -12.690598 0.0 16.031086 -18.033056 2.372098 1.665666 -1.95592 -2.878298 4.727796 -4.170587 4.993924 11.020522 2e-06 -1e-06 12.109047 -3.735716 -2.866783 1e-06 0.0 0.0 1.291985 -1.928547 -1.498091 14.800122 0.567465 3.865608 14.242565 -1.341736 -6.660657 19.631958 0.143925 -0.648246 49.999008 -0.75991 -6.683542 0.353028 -1.511149 -0.031941 20.222784 3.684306 2.316631 18.787266 2e-06 -2e-06 10.751622 -0.479869 1.397904 1e-06 0.0 0.0 3.273805 0.305948 -0.58011 21.486801 11.830364 2.26613 8.162924 1e-06 -2e-06 18.399073 -3.798987 -4.940571 3e-06 0.0 -2e-06 6.534365 8.042498 -7.805864 -0.037744 -0.060275 16.988476 -10.434254 5.76634 -6.487228 1.660199 -2.092378 -0.949922 0.0 -0.0 2e-06 -8.798978 -22.131916 -7.78405 0.032423 -0.005859 21.820953 8.3343 -3.711769 -8.859459 -1.414797 0.966374 -0.887058 0.0 1e-06 -1e-06 
-1.32354 0.0 1.179262 0.0 0.113787 0.0 0.0 98.658211 0.0 1.221173 0.041723 -1.954653 -0.841365 -0.143014 0.894344 -0.586506 0.080918 -4.951158 -1.683477 -2.160879 13.150091 1.080325 2.424066 10.633762 -0.758402 -0.888059 -3.617056 1.155746 -1.697607 -17.867357 7.7e-05 -2.3e-05 6e-06 0.010631 0.027625 0.075369 0.648897 -3.718717 -10.424292 -0.629082 3.781037 -10.411423 -18.610722 -10.445309 18.692841 -56.303574 -23.543776 32.41153 0.662772 -23.318089 -0.105883 -7.692075 -1.427151 3.32381 -5.882115 9.861295 0.70259 -10.936887 -0.360575 7.156211 -0.0 8.774834 -1e-06 -16.118746 18.124308 6.152973 -1.844036 2.498508 -2.50728 -10.163614 4.67895 4.621112 -20.976055 -2e-06 -1e-06 -21.226318 2.451698 -3.594006 0.0 -6e-06 0.0 -1.362685 2.240799 -0.746326 -21.334946 0.584912 3.008322 -13.821236 -4e-06 -1e-06 -23.887209 -0.249081 -0.839489 -59.835079 2.573116 -1.451214 -0.294025 1.679689 0.833257 -14.218229 0.093216 1.300579 -34.212105 -0.287565 0.967165 -20.033243 0.964537 1.212843 1e-06 1e-06 0.0 -3.440394 0.788234 0.501655 -15.928209 -3.167311 2.999706 -6.338836 -2e-06 1e-06 -18.123472 3.648185 -4.905681 -6e-06 -1e-06 -3e-06 14.578027 11.799162 20.474934 56.623798 16.198532 30.639118 1.484484 36.76281 0.645845 4.4922 1.140144 2.238708 2.243545 -5.255041 -3.180159 14.282905 -0.826598 6.952505 -0.0 -12.690617 -1e-06 15.894311 -17.889828 2.49727 1.665669 -1.955923 -2.878303 4.727803 -4.170591 4.993926 11.020538 3e-06 -4e-06 12.109064 -3.735719 -2.866788 1e-06 1e-06 0.0 1.291987 -1.928551 -1.49809 14.800142 0.567466 3.865606 14.242588 -1.341738 -6.660666 19.631989 0.143925 -0.64825 49.90752 -0.802768 -6.607971 0.35303 -1.511152 -0.031941 20.222809 3.684311 2.316627 18.787292 4e-06 -7e-06 10.751636 -0.479868 1.397903 1e-06 1e-06 -1e-06 3.27381 0.305948 -0.580112 21.486834 11.830384 2.266133 8.162935 1e-06 -3e-06 18.399103 -3.798988 -4.940586 3e-06 -0.0 -3e-06 6.463687 7.815875 -7.654334 -0.047714 -0.07075 16.824848 -10.450445 5.873399 -6.468108 1.657059 -2.090839 -0.892196 0.0 -0.0 2e-06 -8.906516 -22.04454 -7.635276 0.036255 0.005862 21.795036 8.414865 -3.936793 -8.817575 -1.416566 0.986129 -0.753727 0.0 0.0 -1e-06 
-1.259395 0.0 1.174851 0.0 0.260785 0.0 0.0 98.656784 0.0 1.19809 0.0428 -2.040516 -0.865065 -0.148317 1.037883 -0.566534 0.150286 -4.918944 -1.724116 -1.991671 13.200292 1.016039 2.450291 10.919352 -0.732529 -0.838823 -3.644986 1.212636 -1.720558 -17.809528 7.7e-05 -2.3e-05 6e-06 0.009941 -0.001565 0.072005 0.63355 -3.744157 -10.403653 -0.614629 3.747472 -10.382825 -18.212345 -10.144079 18.814348 -56.476444 -23.527847 31.154696 0.608075 -23.988804 -0.098833 -7.455379 -1.462325 2.773105 -5.882111 9.861292 0.702588 -10.936877 -0.360575 7.156205 0.0 8.77483 -3e-06 -16.063065 18.120378 6.096404 -1.844034 2.498506 -2.507279 -10.163606 4.678948 4.621108 -20.976038 -4e-06 -1e-06 -21.226305 2.451696 -3.594005 1e-06 -6e-06 -0.0 -1.362683 2.240798 -0.746322 -21.334929 0.584909 3.008319 -13.821223 -5e-06 -1e-06 -23.887188 -0.249081 -0.839487 -59.620716 2.595125 -1.55401 -0.294025 1.679687 0.833256 -14.218218 0.093214 1.300576 -34.212074 -0.287569 0.967165 -20.033226 0.964534 1.212841 1e-06 1e-06 0.0 -3.440391 0.788234 0.501655 -15.928198 -3.167313 2.999704 -6.338832 -1e-06 -2e-06 -18.123459 3.64818 -4.905678 -4e-06 -1e-06 -2e-06 13.691554 11.944773 20.280788 54.819786 16.190672 32.398773 1.410627 41.977104 0.81169 9.510266 -3.018515 7.181031 2.243545 -5.255041 -3.180161 14.282907 -0.826598 6.952507 -2e-06 -12.690611 1e-06 15.66823 -17.589289 2.877018 1.665668 -1.955924 -2.878301 4.727805 -4.170591 4.993927 11.02054 2e-06 -2e-06 12.109066 -3.735719 -2.866786 -1e-06 -0.0 -1e-06 1.291987 -1.92855 -1.498091 14.800146 0.567467 3.865611 14.242588 -1.341736 -6.660665 19.63199 0.143924 -0.648249 49.716793 -0.83162 -6.420436 0.35303 -1.511152 -0.031941 20.222816 3.684311 2.31663 18.787298 4e-06 -3e-06 10.751643 -0.479869 1.397905 -1e-06 -0.0 -0.0 3.27381 0.305946 -0.580112 21.486835 11.830381 2.266131 8.162937 -1e-06 -0.0 18.399107 -3.798987 -4.940583 4e-06 1e-06 -2e-06 6.44531 7.66256 -7.637858 -0.054635 -0.075399 16.901533 -10.44331 5.861283 -6.505534 1.651461 -2.078745 -0.832656 0.0 -0.0 2e-06 -8.957431 -21.92259 -7.515128 0.038336 0.014964 21.807768 8.497486 -4.229426 -8.788714 -1.416782 0.980762 -0.611902 0.0 0.0 -1e-06 
